<?xml version="1.0" encoding="utf-8"?>
<!-- Generator: Adobe Illustrator 25.0.1, SVG Export Plug-In . SVG Version: 6.00 Build 0)  -->
<svg version="1.1" id="Layer_1" xmlns="http://www.w3.org/2000/svg" xmlns:xlink="http://www.w3.org/1999/xlink" x="0px" y="0px"
	 viewBox="0 0 522 522" style="enable-background:new 0 0 522 522;" xml:space="preserve">
<style type="text/css">
	.st0{fill:#FFFFFF;}
</style>
<path class="st0" d="M81.7,309.2c1.6,0,3,0.2,4.2,0.7c1.1,0.5,2.1,1.1,2.8,1.9c0.7,0.8,1.2,1.7,1.6,2.7c0.3,1,0.5,2,0.5,3.1
	c0,1-0.2,2.1-0.5,3.1c-0.3,1-0.9,1.9-1.6,2.7c-0.7,0.8-1.6,1.4-2.8,1.9c-1.1,0.5-2.5,0.7-4.2,0.7h-6v9.3H70v-26H81.7z M80.2,321.4
	c0.7,0,1.3,0,1.9-0.1c0.6-0.1,1.1-0.3,1.6-0.6s0.8-0.7,1.1-1.2s0.4-1.2,0.4-2c0-0.8-0.1-1.5-0.4-2s-0.7-0.9-1.1-1.2
	c-0.5-0.3-1-0.5-1.6-0.6c-0.6-0.1-1.2-0.1-1.9-0.1h-4.5v7.8H80.2z"/>
</svg>
