<?xml version="1.0" encoding="utf-8"?>
<!-- Generator: Adobe Illustrator 25.0.1, SVG Export Plug-In . SVG Version: 6.00 Build 0)  -->
<svg version="1.1" id="Layer_1" xmlns="http://www.w3.org/2000/svg" xmlns:xlink="http://www.w3.org/1999/xlink" x="0px" y="0px"
	 viewBox="0 0 522.7 522.7" style="enable-background:new 0 0 522.7 522.7;" xml:space="preserve">
<style type="text/css">
	.st0{fill:#E1DFD9;}
	.st1{fill:#303030;}
	.st2{fill:#010101;stroke:#030303;stroke-miterlimit:10;}
	.st3{fill:none;}
</style>
<rect id="Frame" x="0.4" y="0.4" class="st0" width="522" height="522"/>
<rect id="Black_BG" x="20.2" y="20.2" width="482.3" height="482.3"/>
<rect x="25.4" y="25.4" class="st1" width="472" height="11.3"/>
<rect x="25.4" y="40.2" class="st1" width="472" height="11.3"/>
<rect x="25.4" y="55.1" class="st1" width="472" height="11.3"/>
<rect x="25.4" y="69.9" class="st1" width="472" height="11.3"/>
<rect x="25.4" y="84.8" class="st1" width="472" height="11.3"/>
<rect x="25.4" y="99.7" class="st1" width="472" height="11.3"/>
<rect x="25.4" y="114.5" class="st1" width="472" height="11.3"/>
<rect x="25.4" y="129.4" class="st1" width="472" height="11.3"/>
<rect x="25.4" y="144.3" class="st1" width="472" height="11.3"/>
<rect x="25.4" y="159.1" class="st1" width="472" height="11.3"/>
<rect x="25.4" y="174" class="st1" width="472" height="11.3"/>
<rect x="25.4" y="188.8" class="st1" width="472" height="11.3"/>
<rect x="25.4" y="203.7" class="st1" width="472" height="11.3"/>
<rect x="25.4" y="218.6" class="st1" width="472" height="11.3"/>
<rect x="25.4" y="233.4" class="st1" width="472" height="11.3"/>
<rect x="25.4" y="248.3" class="st1" width="472" height="11.3"/>
<rect x="25.4" y="263.2" class="st1" width="472" height="11.3"/>
<rect x="25.4" y="278" class="st1" width="472" height="11.3"/>
<rect x="25.4" y="292.9" class="st1" width="472" height="11.3"/>
<rect x="25.4" y="307.7" class="st1" width="472" height="11.3"/>
<rect x="25.4" y="322.6" class="st1" width="472" height="11.3"/>
<rect x="25.4" y="337.5" class="st1" width="472" height="11.3"/>
<rect x="25.4" y="352.3" class="st1" width="472" height="11.3"/>
<rect x="25.4" y="367.2" class="st1" width="472" height="11.3"/>
<rect x="25.4" y="382.1" class="st1" width="472" height="11.3"/>
<rect x="25.4" y="396.9" class="st1" width="472" height="11.3"/>
<rect x="25.4" y="411.8" class="st1" width="472" height="11.3"/>
<rect x="25.4" y="426.6" class="st1" width="472" height="11.3"/>
<rect x="25.4" y="441.5" class="st1" width="472" height="11.3"/>
<rect x="25.4" y="456.4" class="st1" width="472" height="11.3"/>
<rect x="25.4" y="471.2" class="st1" width="472" height="11.3"/>
<rect x="25.4" y="486.1" class="st1" width="472" height="11.3"/>
<line class="st2" x1="522.4" y1="0.4" x2="501.2" y2="21.5"/>
<line class="st2" x1="501.3" y1="501.3" x2="522.4" y2="522.4"/>
<line class="st2" x1="21.1" y1="501.6" x2="0.4" y2="522.4"/>
<line class="st2" x1="0.4" y1="0.4" x2="21" y2="21"/>
<rect x="0.3" y="0.4" class="st3" width="522" height="522"/>
</svg>
