<?xml version="1.0" encoding="utf-8"?>
<!-- Generator: Adobe Illustrator 25.0.1, SVG Export Plug-In . SVG Version: 6.00 Build 0)  -->
<svg version="1.1" id="Layer_1" xmlns="http://www.w3.org/2000/svg" xmlns:xlink="http://www.w3.org/1999/xlink" x="0px" y="0px"
	 viewBox="0 0 522 522" style="enable-background:new 0 0 522 522;" xml:space="preserve">
<style type="text/css">
	.st0{fill:#FFFFFF;}
</style>
<path class="st0" d="M209.5,333.2c-2,1.7-4.7,2.6-8.2,2.6c-3.5,0-6.3-0.9-8.2-2.6s-2.9-4.3-2.9-7.9v-16.2h5.7v16.2
	c0,0.7,0.1,1.4,0.2,2.1c0.1,0.7,0.4,1.3,0.8,1.8c0.4,0.5,0.9,0.9,1.6,1.3c0.7,0.3,1.6,0.5,2.8,0.5c2,0,3.5-0.5,4.2-1.4
	c0.8-0.9,1.2-2.3,1.2-4.3v-16.2h5.7v16.2C212.5,328.9,211.5,331.5,209.5,333.2z"/>
</svg>
