<?xml version="1.0" encoding="utf-8"?>
<!-- Generator: Adobe Illustrator 25.0.1, SVG Export Plug-In . SVG Version: 6.00 Build 0)  -->
<svg version="1.1" id="Layer_1" xmlns="http://www.w3.org/2000/svg" xmlns:xlink="http://www.w3.org/1999/xlink" x="0px" y="0px"
	 viewBox="0 0 522 522" style="enable-background:new 0 0 522 522;" xml:space="preserve">
<style type="text/css">
	.st0{fill:#FFFFFF;}
</style>
<path class="st0" d="M85.4,424.8c-1.2,0.5-2.5,0.8-3.8,0.8c-2,0-3.8-0.3-5.4-1s-2.9-1.6-4-2.9c-1.1-1.2-1.9-2.6-2.5-4.3
	s-0.9-3.4-0.9-5.3c0-1.9,0.3-3.8,0.9-5.4s1.4-3.1,2.5-4.4c1.1-1.2,2.4-2.2,4-2.9s3.4-1.1,5.4-1.1c1.3,0,2.6,0.2,3.9,0.6
	c1.3,0.4,2.4,1,3.4,1.8c1,0.8,1.8,1.7,2.5,2.9c0.7,1.1,1.1,2.5,1.2,3.9h-5.5c-0.3-1.5-1-2.6-2-3.3s-2.2-1.1-3.5-1.1
	c-1.3,0-2.4,0.2-3.3,0.7c-0.9,0.5-1.6,1.2-2.2,2c-0.6,0.8-1,1.8-1.2,2.9c-0.3,1.1-0.4,2.2-0.4,3.3c0,1.1,0.1,2.2,0.4,3.2
	c0.3,1,0.7,2,1.2,2.8c0.6,0.8,1.3,1.5,2.2,2c0.9,0.5,2,0.7,3.3,0.7c1.9,0,3.4-0.5,4.4-1.4c1-1,1.6-2.4,1.8-4.2h-5.8v-4.3H93V425
	h-3.6l-0.6-3C87.8,423.4,86.7,424.3,85.4,424.8z"/>
</svg>
