<?xml version="1.0" encoding="utf-8"?>
<!-- Generator: Adobe Illustrator 25.0.1, SVG Export Plug-In . SVG Version: 6.00 Build 0)  -->
<svg version="1.1" id="Layer_1" xmlns="http://www.w3.org/2000/svg" xmlns:xlink="http://www.w3.org/1999/xlink" x="0px" y="0px"
	 viewBox="0 0 522 522" style="enable-background:new 0 0 522 522;" xml:space="preserve">
<style type="text/css">
	.st0{fill:#FFFFFF;}
</style>
<path class="st0" d="M116.8,398.9c1.2,0,2.2,0.2,3.2,0.6c0.9,0.4,1.7,0.9,2.4,1.6s1.2,1.4,1.5,2.3s0.5,1.8,0.5,2.8
	c0,1.5-0.3,2.9-1,4c-0.6,1.1-1.7,2-3.2,2.6v0.1c0.7,0.2,1.3,0.5,1.8,0.9s0.8,0.9,1.1,1.4c0.3,0.5,0.5,1.1,0.6,1.8
	c0.1,0.7,0.2,1.3,0.3,2c0,0.4,0,0.9,0.1,1.5c0,0.6,0.1,1.1,0.1,1.7c0.1,0.6,0.2,1.1,0.3,1.7c0.1,0.5,0.3,1,0.6,1.3h-5.7
	c-0.3-0.8-0.5-1.8-0.6-3c-0.1-1.1-0.2-2.2-0.3-3.3c-0.2-1.4-0.6-2.4-1.2-3c-0.6-0.6-1.7-0.9-3.1-0.9h-5.7V425h-5.7v-26H116.8z
	 M114.8,410.7c1.3,0,2.3-0.3,3-0.9c0.7-0.6,1-1.5,1-2.8c0-1.3-0.3-2.2-1-2.8c-0.7-0.6-1.6-0.9-3-0.9h-6.3v7.3H114.8z"/>
</svg>
