<?xml version="1.0" encoding="utf-8"?>
<!-- Generator: Adobe Illustrator 25.0.1, SVG Export Plug-In . SVG Version: 6.00 Build 0)  -->
<svg version="1.1" id="Layer_1" xmlns="http://www.w3.org/2000/svg" xmlns:xlink="http://www.w3.org/1999/xlink" x="0px" y="0px"
	 viewBox="0 0 522 522" style="enable-background:new 0 0 522 522;" xml:space="preserve">
<style type="text/css">
	.st0{fill:#FFFFFF;}
</style>
<path class="st0" d="M134,406.7c0.6-1.7,1.4-3.1,2.5-4.4c1.1-1.2,2.4-2.2,4-2.9s3.4-1.1,5.4-1.1c2,0,3.8,0.4,5.4,1.1
	c1.6,0.7,2.9,1.7,4,2.9c1.1,1.2,1.9,2.7,2.5,4.4c0.6,1.7,0.9,3.5,0.9,5.4c0,1.9-0.3,3.7-0.9,5.3c-0.6,1.6-1.4,3.1-2.5,4.3
	c-1.1,1.2-2.4,2.2-4,2.9c-1.6,0.7-3.4,1-5.4,1c-2,0-3.8-0.3-5.4-1s-2.9-1.6-4-2.9c-1.1-1.2-1.9-2.6-2.5-4.3s-0.9-3.4-0.9-5.3
	C133.1,410.1,133.4,408.3,134,406.7z M139.2,415.3c0.3,1,0.7,2,1.2,2.8c0.6,0.8,1.3,1.5,2.2,2c0.9,0.5,2,0.7,3.3,0.7
	c1.3,0,2.4-0.2,3.3-0.7c0.9-0.5,1.6-1.2,2.2-2c0.6-0.8,1-1.8,1.2-2.8c0.3-1,0.4-2.1,0.4-3.2c0-1.1-0.1-2.2-0.4-3.3
	c-0.3-1.1-0.7-2-1.2-2.9c-0.6-0.8-1.3-1.5-2.2-2c-0.9-0.5-2-0.7-3.3-0.7c-1.3,0-2.4,0.2-3.3,0.7c-0.9,0.5-1.6,1.2-2.2,2
	c-0.6,0.8-1,1.8-1.2,2.9c-0.3,1.1-0.4,2.2-0.4,3.3C138.8,413.2,138.9,414.2,139.2,415.3z"/>
</svg>
